<?xml version="1.0" encoding="utf-8"?>

<!-- License Agreement at http://iconmonstr.com/license/ -->

<!DOCTYPE svg PUBLIC "-//W3C//DTD SVG 1.1//EN" "http://www.w3.org/Graphics/SVG/1.1/DTD/svg11.dtd">
<svg version="1.1" xmlns="http://www.w3.org/2000/svg" xmlns:xlink="http://www.w3.org/1999/xlink" x="0px" y="0px"
	 width="512px" height="512px" fill="green" viewBox="0 0 512 512" enable-background="new 0 0 512 512" xml:space="preserve">
<path id="christmas-tree-7-icon" d="M239.028,91.321l-17.227-16.556l23.666-3.269L255.89,50l10.42,21.497l23.666,3.269
	l-17.225,16.556l4.205,23.517l-21.066-11.267l-21.066,11.267L239.028,91.321z M134.407,378.713l51.514-68.221h-33.668l43.191-60.05
	h-24.512l84.957-131.841l84.957,131.841h-24.514l43.193,60.05h-33.668l51.514,68.221H134.407z M216.231,225.442h26.035
	l-14.539,21.722c35.162,3.201,35.186,41.67,73.922,26.295l-32.139-48.017h26.035L255.89,164.5L216.231,225.442z M236.89,462h38
	v-66.398h-38V462z M144.407,121.028c-8.283,0-15,6.716-15,15s6.717,15,15,15c8.285,0,15-6.716,15-15
	S152.692,121.028,144.407,121.028z M410.417,239c-8.285,0-15,6.716-15,15s6.715,15,15,15c8.283,0,15-6.716,15-15
	S418.7,239,410.417,239z M139.407,201c-5.521,0-10,4.478-10,10s4.479,10,10,10c5.523,0,10-4.478,10-10S144.931,201,139.407,201z
	 M94.083,163.695c-4.141,0-7.5,3.358-7.5,7.5s3.359,7.5,7.5,7.5c4.143,0,7.5-3.358,7.5-7.5S98.226,163.695,94.083,163.695z
	 M109.083,251.028c-4.141,0-7.5,3.358-7.5,7.5s3.359,7.5,7.5,7.5c4.143,0,7.5-3.358,7.5-7.5S113.226,251.028,109.083,251.028z
	 M367.917,192.334c-5.523,0-10,4.478-10,10s4.477,10,10,10c5.521,0,10-4.478,10-10S373.438,192.334,367.917,192.334z
	 M402.917,151.028c-4.143,0-7.5,3.358-7.5,7.5s3.357,7.5,7.5,7.5c4.141,0,7.5-3.358,7.5-7.5S407.058,151.028,402.917,151.028z
	 M348.417,121.028c-4.143,0-7.5,3.358-7.5,7.5s3.357,7.5,7.5,7.5c4.141,0,7.5-3.358,7.5-7.5S352.558,121.028,348.417,121.028z"/>
</svg>
