<?xml version="1.0" encoding="utf-8"?>

<!-- License Agreement at http://iconmonstr.com/license/ -->

<!DOCTYPE svg PUBLIC "-//W3C//DTD SVG 1.1//EN" "http://www.w3.org/Graphics/SVG/1.1/DTD/svg11.dtd">
<svg version="1.1" xmlns="http://www.w3.org/2000/svg" xmlns:xlink="http://www.w3.org/1999/xlink" x="0px" y="0px"
	 width="512px" height="512px" fill="yellow" viewBox="0 0 512 512" style="enable-background:new 0 0 512 512;" xml:space="preserve">
<path id="umbrella-icon" d="M273.166,85.297V67.167C273.166,57.687,265.48,50,256,50c-9.48,0-17.167,7.687-17.167,17.167v18.055
	C120.117,94.191,60.788,181.248,50,255.288c32.003-45.959,105.33-45.959,137.333,0c31.576-45.331,103.805-46.085,135.909,0
	c32.002-45.959,106.755-45.959,138.758,0C451.271,181.608,391.188,95.062,273.166,85.297z M273.166,258.69V410.5
	c0,28.432-23.059,51.5-51.5,51.5c-28.44,0-51.5-23.068-51.5-51.5v-17.166H204.5V410.5c0,9.455,7.703,17.166,17.167,17.166
	c9.464,0,17.167-7.711,17.167-17.166V258.297C250.501,254.416,260.635,254.147,273.166,258.69z"/>
</svg>
