<?xml version="1.0" encoding="utf-8"?>

<!-- License Agreement at http://iconmonstr.com/license/ -->

<!DOCTYPE svg PUBLIC "-//W3C//DTD SVG 1.1//EN" "http://www.w3.org/Graphics/SVG/1.1/DTD/svg11.dtd">
<svg version="1.1" xmlns="http://www.w3.org/2000/svg" xmlns:xlink="http://www.w3.org/1999/xlink" x="0px" y="0px"
	 width="512px" height="512px" fill="white" viewBox="0 0 512 512" enable-background="new 0 0 512 512" xml:space="preserve">
<path id="mouse-6-icon" d="M256,85c51.28,0,93,41.72,93,93v156c0,51.28-41.72,93-93,93s-93-41.72-93-93V178
	C163,126.72,204.72,85,256,85z M256,50c-70.693,0-128,57.307-128,128v156c0,70.692,57.307,128,128,128c70.692,0,128-57.308,128-128
	V178C384,107.307,326.692,50,256,50z M256,185.528c-11.598,0-21-9.402-21-21s9.402-21,21-21s21,9.402,21,21
	S267.598,185.528,256,185.528z"/>
</svg>
