<?xml version="1.0" encoding="utf-8"?>

<!-- License Agreement at http://iconmonstr.com/license/ -->

<!DOCTYPE svg PUBLIC "-//W3C//DTD SVG 1.1//EN" "http://www.w3.org/Graphics/SVG/1.1/DTD/svg11.dtd">
<svg version="1.1" xmlns="http://www.w3.org/2000/svg" xmlns:xlink="http://www.w3.org/1999/xlink" x="0px" y="0px"
	 width="512px" height="512px" fill="orange" viewBox="0 0 512 512" enable-background="new 0 0 512 512" xml:space="preserve">
<path id="christmas-gingerbread-2-icon" d="M390.647,245.568c-42.564,16.154-90.814,31.154-42.014,125.024
	c-9.926,0.63-27.175,3.774-30.092,22.435c-0.752,4.813-3.1,5.289-7.33,4.557c-11.278-1.957-24.782,5.031-28.078,16.192
	c-14.551-22.554-18.89-29.936-27.134-49.83c-8.244,19.895-22.455,45.641-39.657,65.759c-3.296-11.161-11.8-16.149-23.078-14.192
	c-4.23,0.732-5.95,0.115-7.33-4.557c-3.231-10.955-11.348-16.415-23.133-14.377c-3.983,0.692-5.89,0.316-7.327-4.557
	c-0.384-1.298-0.848-2.858-1.632-4.501c64.61-107.658,11.997-125.228-32.49-141.953c6.255-4.317,10.039-12.642,6.225-23.116
	c-1.411-3.875-1.286-5.776,3.19-8.016c10.324-5.167,14.122-14.18,10.071-25.305c-0.019-0.052-0.032-0.092-0.051-0.141
	c6.517,0.668,13.315,1.154,20.307,1.154c31.871,0,43.102-11.573,43.102-11.573c-14.127-13.596-22.931-32.683-22.931-53.838
	C181.266,83.46,214.726,50,256,50s74.734,33.46,74.734,74.734c0,21.155-8.804,40.242-22.931,53.838c0,0,11.23,11.573,43.102,11.573
	c6.991,0,13.79-0.486,20.307-1.154c-0.019,0.049-0.032,0.089-0.051,0.141c-4.051,11.125-0.253,20.138,10.071,25.305
	c4.477,2.239,4.602,4.141,3.19,8.016C380.608,232.927,384.393,241.251,390.647,245.568z M219.943,109.488
	c0,6.895,5.59,12.485,12.488,12.485c6.895,0,12.483-5.591,12.483-12.485c0-6.896-5.589-12.485-12.483-12.485
	C225.533,97.003,219.943,102.592,219.943,109.488z M268.499,279.21c0-6.896-5.59-12.486-12.485-12.486
	c-0.005,0-0.009,0.001-0.014,0.001s-0.009-0.001-0.014-0.001c-6.896,0-12.485,5.591-12.485,12.486
	c0,6.896,5.59,12.485,12.485,12.485c0.005,0,0.009-0.001,0.014-0.001s0.009,0.001,0.014,0.001
	C262.909,291.695,268.499,286.106,268.499,279.21z M268.499,230.266c0-6.896-5.59-12.485-12.485-12.485
	c-0.005,0-0.009,0.001-0.014,0.001s-0.009-0.001-0.014-0.001c-6.896,0-12.485,5.589-12.485,12.485s5.59,12.486,12.485,12.486
	c0.005,0,0.009-0.001,0.014-0.001s0.009,0.001,0.014,0.001C262.909,242.752,268.499,237.162,268.499,230.266z M223.401,161.122
	c2.772,2.688,7.199,2.618,9.888-0.154c6.026-6.217,13.242-9.112,22.711-9.112s16.685,2.896,22.711,9.112
	c2.688,2.772,7.115,2.842,9.888,0.154c2.772-2.688,2.841-7.115,0.154-9.888c-8.596-8.866-19.615-13.362-32.753-13.362
	s-24.157,4.496-32.753,13.362C220.561,154.007,220.629,158.434,223.401,161.122z M292.057,109.488
	c0-6.896-5.59-12.485-12.488-12.485c-6.895,0-12.483,5.589-12.483,12.485c0,6.895,5.589,12.485,12.483,12.485
	C286.467,121.974,292.057,116.383,292.057,109.488z M402.837,185.337c-5.188,0.378-10.858,1.109-16.895,1.89
	c-0.201,2.717-1.006,4.946-1.642,6.69c-1.468,4.033-1.165,5.835,3.19,8.015c10.299,5.155,14.131,14.159,10.072,25.305
	c-1.459,4.007-1.184,5.828,3.191,8.018c1.71,0.856,3.904,1.959,5.972,3.898c4.886-2.163,9.428-4.474,13.399-7.094
	C442.786,217.115,432.302,183.189,402.837,185.337z M124.509,201.932c4.355-2.18,4.658-3.981,3.19-8.015
	c-0.636-1.744-1.44-3.974-1.642-6.69c-6.036-0.78-11.706-1.512-16.895-1.89c-29.465-2.147-39.949,31.778-17.289,46.722
	c3.972,2.62,8.514,4.931,13.399,7.094c2.067-1.939,4.262-3.042,5.972-3.898c4.375-2.189,4.65-4.011,3.191-8.018
	C110.378,216.091,114.21,207.087,124.509,201.932z M195.656,429.289c-11.571,2.01-19.838-3.202-23.134-14.377
	c-1.442-4.886-3.352-5.244-7.327-4.555c-9.958,1.73-16.967-2.346-20.55-8.135c-2.083,3.208-4.251,6.48-6.524,9.834
	c-15.287,22.55-1.627,42.234,11.986,47.447c19.107,7.316,38.573-2.203,55.872-18.779c-1.692-2.482-2.431-4.965-2.996-6.881
	C201.608,429.182,199.896,428.556,195.656,429.289z M349.124,429.069c-4.954,0.185-8.82,4.351-8.635,9.306
	c0.185,4.955,4.351,8.82,9.305,8.636c4.955-0.185,8.822-4.349,8.637-9.306C358.245,432.75,354.081,428.885,349.124,429.069z
	 M378.276,431.228c-4.14,0.155-7.37,3.634-7.215,7.774c0.155,4.139,3.634,7.367,7.772,7.215c4.142-0.154,7.371-3.636,7.217-7.773
	C385.896,434.303,382.415,431.073,378.276,431.228z M363.183,404.045c-5.52,0.205-9.826,4.847-9.619,10.365
	c0.205,5.519,4.847,9.827,10.366,9.623c5.518-0.208,9.825-4.849,9.62-10.365C373.344,408.147,368.704,403.839,363.183,404.045z"/>
</svg>
