<?xml version="1.0" encoding="utf-8"?>

<!-- License Agreement at http://iconmonstr.com/license/ -->

<!DOCTYPE svg PUBLIC "-//W3C//DTD SVG 1.1//EN" "http://www.w3.org/Graphics/SVG/1.1/DTD/svg11.dtd">
<svg version="1.1" xmlns="http://www.w3.org/2000/svg" xmlns:xlink="http://www.w3.org/1999/xlink" x="0px" y="0px"
	 width="512px" height="512px" fill="lightgreen" viewBox="0 0 512 512" enable-background="new 0 0 512 512" xml:space="preserve">
<path id="keyboard-11-icon" d="M50,214.84v217.328h412V214.84H50z M323.081,255.682h39.517v33.296h-39.517V255.682z
	 M333.649,307.354v33.297h-39.515v-33.297H333.649z M265.188,255.682h39.515v33.296h-39.515V255.682z M275.757,307.354v33.297
	h-39.515v-33.297H275.757z M207.296,255.682h39.515v33.296h-39.515V255.682z M217.864,307.354v33.297h-39.516v-33.297H217.864z
	 M149.402,255.682h39.516v33.296h-39.516V255.682z M91.51,255.682h39.515v33.296H91.51V255.682z M91.51,307.354h68.461v33.297H91.51
	V307.354z M352.027,392.326H159.971v-33.297h192.057V392.326z M420.49,340.651h-68.463v-33.297h68.463V340.651z M420.49,288.978
	h-39.516v-33.296h39.516V288.978z M224.669,148.641c-16.404-0.724-36.283-1.417-48.231-16.876
	c-9.899-12.808-12.136-32.222-5.984-51.933l19.092,5.959c-3.249,10.409-4.242,24.74,2.716,33.742
	c7.103,9.189,22.007,8.413,37.572,9.592c46.202,3.5,55.698,41.142,42.5,65.715H247.5
	C263.553,181.635,264.28,150.387,224.669,148.641z"/>
</svg>
